PathFileType	4	(X/Y/Z)	 s04c0303.trc
DataRate	CameraRate	NumFrames	NumMarkers	Units	OrigDataRate	OrigDataStartFrame	OrigNumFrames
200	200	4	50	mm	200	1	2000
Frame#	Time	racr			lacr			c7			jug			rlel			rdr			llel			ldr			s2			lic			ric			lasi			rasi			rpsi			lpsi			rgt			lgt			rth1			rth2			rth3			rth4			rlfc			rmfc			rsh1			rsh2			rsh3			rsh4			rlmal			rmmal			rcal			rtoe			rmt5			lth1			lth2			lth4			lth3			llfc			lmfc			lsh1			lsh2			lsh3			lsh4			llmal			lmmal			lcal			ltoe			lmt5			SBIKE			LBIKE			RBIKE			
		X1	Y1	Z1	X2	Y2	Z2	X3	Y3	Z3	X4	Y4	Z4	X5	Y5	Z5	X6	Y6	Z6	X7	Y7	Z7	X8	Y8	Z8	X9	Y9	Z9	X10	Y10	Z10	X11	Y11	Z11	X12	Y12	Z12	X13	Y13	Z13	X14	Y14	Z14	X15	Y15	Z15	X16	Y16	Z16	X17	Y17	Z17	X18	Y18	Z18	X19	Y19	Z19	X20	Y20	Z20	X21	Y21	Z21	X22	Y22	Z22	X23	Y23	Z23	X24	Y24	Z24	X25	Y25	Z25	X26	Y26	Z26	X27	Y27	Z27	X28	Y28	Z28	X29	Y29	Z29	X30	Y30	Z30	X31	Y31	Z31	X32	Y32	Z32	X33	Y33	Z33	X34	Y34	Z34	X35	Y35	Z35	X36	Y36	Z36	X37	Y37	Z37	X38	Y38	Z38	X39	Y39	Z39	X40	Y40	Z40	X41	Y41	Z41	X42	Y42	Z42	X43	Y43	Z43	X44	Y44	Z44	X45	Y45	Z45	X46	Y46	Z46	X47	Y47	Z47	X48	Y48	Z48	X49	Y49	Z49	X50	Y50	Z50	
1	0.0050	513.728214	1435.025487	-114.015563	540.363486	1440.264233	-374.942847	499.964525	1476.260615	-259.938076	504.659292	1327.591851	-255.064486	502.514259	1124.265536	-9.293359	702.087630	915.017026	-83.765920	545.775007	1164.158725	-503.051026	706.607447	915.324839	-441.971456	-44.430831	1183.415095	-273.168864	118.836711	1185.906524	-419.525323	116.367460	1164.720755	-105.861812	NaN	NaN	NaN	153.847913	1107.648679	-150.978269	-8.885478	1217.789411	-225.721296	-11.499772	1229.953307	-301.434106	57.218552	1105.164622	-94.630827	75.721207	1130.443914	-466.634096	134.526729	958.293695	-82.515937	192.881987	892.236366	-88.393073	212.442142	808.620124	-96.306408	222.835048	908.765721	-105.248101	264.386697	673.978230	-123.567518	237.104050	658.861410	-234.079913	199.277613	564.822886	-98.689666	180.955781	477.235238	-112.531822	119.227526	415.277273	-118.320578	207.963531	466.349534	-138.450837	59.094329	275.880589	-127.605063	80.424696	279.632208	-213.045992	-16.494555	256.272657	-168.351585	274.191174	180.716553	-151.808005	202.329894	171.014886	-98.242593	138.766925	1075.574378	-472.380394	224.747110	1066.705656	-474.129063	237.693813	1097.234897	-457.828237	296.841070	1014.705360	-482.764028	434.202779	932.027922	-459.170124	466.041434	912.792461	-349.681099	392.105979	826.161832	-478.266532	365.005833	745.964049	-454.774708	300.000165	685.549825	-451.323978	388.481952	736.442068	-425.099156	215.158389	567.326817	-437.736806	216.022761	580.569481	-350.673791	131.237478	554.057449	-393.908442	428.569293	508.062668	-402.207265	353.786630	479.353059	-462.902005	-176.672673	932.783941	-279.507843	-3.302767	85.727152	-484.665116	-15.060083	80.455443	-84.108553	
2	0.0100	513.702052	1434.975593	-114.041043	540.347398	1440.281037	-374.896756	499.930702	1476.275696	-259.924745	504.638806	1327.616653	-255.041663	502.496975	1124.284467	-9.301990	702.080523	915.030903	-83.744618	545.778721	1164.190383	-503.025533	706.628737	915.314305	-441.978897	-44.448488	1183.390680	-273.230405	118.833434	1185.851728	-419.534521	116.350698	1164.717743	-105.875439	NaN	NaN	NaN	153.840473	1107.624868	-150.974070	-8.852486	1217.721240	-225.758764	-11.507318	1229.926517	-301.478383	57.185134	1105.149801	-94.675588	75.726808	1130.450819	-466.657570	134.497490	958.297121	-82.508386	192.865213	892.243371	-88.412050	212.431660	808.612911	-96.297360	222.830518	908.766456	-105.220337	264.359577	673.965004	-123.536792	237.067983	658.850902	-234.052628	199.285398	564.822879	-98.679627	180.929233	477.239405	-112.509100	119.237407	415.219541	-118.326810	207.957702	466.325467	-138.412302	59.103647	275.853068	-127.600140	80.425269	279.624917	-213.061053	-16.483872	256.253030	-168.360331	274.207297	180.719084	-151.805379	202.332461	171.016774	-98.248418	138.792713	1075.565343	-472.375341	224.772273	1066.662599	-474.112884	237.726216	1097.252219	-457.819372	296.871193	1014.698500	-482.752336	434.203158	932.026403	-459.129181	466.022607	912.793806	-349.585537	392.133490	826.170052	-478.239013	365.023437	745.952322	-454.734988	300.017981	685.559931	-451.324278	388.486738	736.440524	-425.048283	215.152532	567.347430	-437.737999	216.024889	580.586101	-350.653817	131.237422	554.082704	-393.913140	428.560827	508.046223	-402.190972	353.774782	479.359128	-462.893868	-176.681481	932.778874	-279.517200	-3.298346	85.716017	-484.651223	-15.033709	80.457801	-84.114332	
3	0.0150	513.710169	1434.990220	-113.996780	540.345964	1440.306479	-374.896109	499.893163	1476.271871	-259.909598	504.637626	1327.646246	-255.041862	502.511463	1124.287817	-9.308087	702.078797	915.043585	-83.749444	545.778636	1164.197665	-503.021250	706.620676	915.307727	-441.971175	-44.459880	1183.368886	-273.245262	118.829083	1185.837686	-419.546600	116.317592	1164.704114	-105.895944	NaN	NaN	NaN	153.805467	1107.634520	-150.982780	-8.877728	1217.701375	-225.795651	-11.512711	1229.872559	-301.498241	57.147426	1105.150774	-94.684086	75.752974	1130.428300	-466.684066	134.458816	958.296622	-82.511598	192.833764	892.225355	-88.406686	212.382216	808.596720	-96.271646	222.801046	908.738446	-105.217718	264.341586	673.941316	-123.503644	237.050169	658.838437	-234.027535	199.263873	564.810354	-98.655389	180.930537	477.221966	-112.476629	119.247297	415.200364	-118.315344	207.939002	466.316627	-138.384373	59.110912	275.831466	-127.599070	80.425269	279.624917	-213.061053	-16.477589	256.252134	-168.368949	274.225108	180.708989	-151.797326	202.364233	171.010222	-98.256891	138.818052	1075.549209	-472.372742	224.789579	1066.685363	-474.091912	237.747635	1097.235349	-457.798356	296.900320	1014.691912	-482.715251	434.239690	932.035298	-459.066063	466.048778	912.804214	-349.536891	392.163958	826.172989	-478.195163	365.039836	745.956877	-454.702577	300.031808	685.578639	-451.302306	388.486508	736.446737	-425.005125	215.148877	567.369159	-437.735110	216.004076	580.606368	-350.655322	131.223552	554.111721	-393.922108	428.559739	508.045252	-402.186277	353.757483	479.377632	-462.899671	-176.685102	932.779590	-279.516135	-3.294889	85.719002	-484.652224	-15.053809	80.465446	-84.115375	
4	0.0200	513.688751	1435.006881	-114.010741	540.364599	1440.318472	-374.905074	499.991855	1476.573792	-260.168574	504.652063	1327.661227	-255.010925	502.500298	1124.295479	-9.325852	702.078734	915.034794	-83.748948	545.819133	1164.209503	-503.010950	706.618421	915.303440	-441.968619	-44.619744	1183.360918	-273.488520	118.846681	1185.811788	-419.561805	116.726781	1165.324330	-106.397938	NaN	NaN	NaN	153.525656	1107.748885	-151.432981	-9.108354	1219.771760	-226.037123	-11.257715	1230.497650	-301.907093	57.126275	1105.143222	-94.708156	75.782514	1130.390481	-466.711373	134.508051	958.473277	-82.270752	193.268991	891.777903	-88.208155	212.344380	808.577631	-96.259416	222.758199	908.748790	-105.170395	264.280740	673.940223	-123.469074	237.038926	658.826551	-233.984907	199.249193	564.813440	-98.636181	179.919440	476.386123	-113.434061	119.234656	415.191186	-118.298140	207.904069	465.896782	-138.543010	59.110922	275.776099	-127.395699	80.472294	279.600661	-213.055142	-16.456827	256.212073	-168.356898	274.240147	180.698289	-151.785243	202.380988	170.997645	-98.255162	138.840625	1075.527245	-472.354825	224.816046	1066.642858	-474.085713	237.545171	1097.393342	-458.160771	296.923893	1014.682887	-482.679479	434.205739	932.089841	-459.006928	466.049846	912.815871	-349.475818	392.184121	826.190894	-478.170524	365.106319	745.995629	-454.815567	300.109835	685.371682	-450.808809	388.554911	736.490717	-425.113849	215.191815	567.221850	-437.430348	215.958064	580.739563	-350.456744	131.220412	554.147282	-393.926179	428.533782	508.055165	-402.184253	353.810329	479.321000	-462.812895	-176.737960	932.767318	-279.783489	-3.296080	85.714484	-484.657708	-15.039193	80.454429	-84.120400	
